<?xml version="1.0" standalone="no"?>
<!DOCTYPE svg PUBLIC "-//W3C//DTD SVG 20010904//EN"
 "http://www.w3.org/TR/2001/REC-SVG-20010904/DTD/svg10.dtd">
<svg version="1.0" xmlns="http://www.w3.org/2000/svg"
 width="700.000000pt" height="700.000000pt" viewBox="0 0 700.000000 700.000000"
 preserveAspectRatio="xMidYMid meet">
<metadata>
Created by potrace 1.14, written by Peter Selinger 2001-2017
</metadata>
<g transform="translate(0.000000,700.000000) scale(0.100000,-0.100000)"
fill="#000000" stroke="none">
<path d="M2441 6120 c-66 -16 -115 -93 -104 -162 7 -46 18 -63 60 -95 l36 -28
1699 0 1698 0 1 -35 c0 -19 1 -1004 2 -2187 l2 -2153 -130 0 c-71 0 -409 -1
-750 -1 -501 0 -625 -3 -645 -14 -14 -7 -201 -190 -417 -407 l-392 -393 -403
401 c-320 319 -410 403 -435 407 -18 4 -359 6 -759 7 -400 0 -730 2 -732 5 -4
4 -6 3080 -3 3181 l1 20 1748 0 1748 0 0 -1020 -1 -1021 -310 0 c-302 0 -311
-1 -345 -22 -19 -12 -140 -128 -269 -258 -129 -129 -238 -234 -243 -233 -4 2
-117 111 -250 244 -134 133 -254 247 -268 255 -19 10 -97 13 -330 15 -168 1
-308 2 -311 3 -3 0 -5 196 -5 434 l1 432 680 5 c635 5 683 6 708 23 90 59 87
191 -5 247 -32 19 -52 20 -796 20 -838 0 -808 2 -853 -61 l-24 -34 -3 -615
c-2 -688 -4 -674 65 -720 l37 -25 355 -1 356 -1 323 -323 322 -322 323 323
322 322 355 1 c390 1 387 1 435 64 20 27 20 44 22 1237 1 1174 0 1211 -18
1247 -12 23 -34 45 -57 57 -36 19 -85 19 -1974 18 l-1937 -2 -27 -21 c-15 -11
-37 -33 -48 -48 l-21 -27 0 -1787 c0 -1772 0 -1787 20 -1827 11 -22 35 -48 55
-59 34 -18 61 -19 825 -20 l791 -1 468 -467 467 -467 465 467 465 467 793 1
793 0 37 23 c20 13 44 37 53 54 16 30 17 199 18 2397 0 2352 0 2365 -20 2405
-11 22 -36 49 -55 60 -35 20 -49 20 -1812 20 -977 0 -1786 -2 -1797 -5z"/>
</g>
</svg>
